<svg width="295" height="293" viewBox="0 0 295 293" fill="none" xmlns="http://www.w3.org/2000/svg">
<path fill-rule="evenodd" clip-rule="evenodd" d="M209.25 147C209.25 113.225 181.766 85.75 148 85.75C114.234 85.75 86.75 113.225 86.75 147C86.75 180.766 114.234 208.25 148 208.25C181.766 208.25 209.25 180.766 209.25 147ZM148 190.75C123.876 190.75 104.25 171.124 104.25 147C104.25 122.876 123.876 103.25 148 103.25C172.124 103.25 191.75 122.876 191.75 147C191.75 171.124 172.124 190.75 148 190.75ZM139.25 224.577V278.25C139.25 280.571 140.172 282.796 141.813 284.437C143.454 286.078 145.679 287 148 287C150.321 287 152.546 286.078 154.187 284.437C155.828 282.796 156.75 280.571 156.75 278.25V224.577C156.75 222.257 155.828 220.031 154.187 218.39C152.546 216.749 150.321 215.828 148 215.828C145.679 215.828 143.454 216.749 141.813 218.39C140.172 220.031 139.25 222.257 139.25 224.577ZM139.25 15.75V69.4225C139.25 71.7431 140.172 73.9687 141.813 75.6097C143.454 77.2506 145.679 78.1725 148 78.1725C150.321 78.1725 152.546 77.2506 154.187 75.6097C155.828 73.9687 156.75 71.7431 156.75 69.4225V15.75C156.75 13.4294 155.828 11.2038 154.187 9.56282C152.546 7.92187 150.321 7 148 7C145.679 7 143.454 7.92187 141.813 9.56282C140.172 11.2038 139.25 13.4294 139.25 15.75ZM234.625 245.989C235.436 246.804 236.4 247.451 237.461 247.893C238.523 248.334 239.661 248.562 240.811 248.562C241.961 248.562 243.1 248.334 244.161 247.893C245.223 247.451 246.187 246.804 246.997 245.989C247.811 245.177 248.456 244.213 248.896 243.151C249.336 242.09 249.563 240.952 249.563 239.802C249.563 238.653 249.336 237.515 248.896 236.454C248.456 235.392 247.811 234.428 246.997 233.616L209.04 195.667C207.399 194.027 205.174 193.105 202.854 193.105C200.533 193.105 198.308 194.027 196.668 195.667C195.027 197.308 194.105 199.533 194.105 201.854C194.105 204.174 195.027 206.399 196.668 208.04L234.625 245.989ZM49.0112 48.0025C48.198 48.8144 47.5528 49.7787 47.1125 50.8402C46.6723 51.9017 46.4457 53.0396 46.4457 54.1888C46.4457 55.3379 46.6723 56.4758 47.1125 57.5373C47.5528 58.5988 48.198 59.5631 49.0112 60.375L86.9688 98.3238C87.7795 99.1391 88.7434 99.7862 89.805 100.228C90.8667 100.669 92.0052 100.897 93.155 100.897C94.3048 100.897 95.4433 100.669 96.505 100.228C97.5666 99.7862 98.5305 99.1391 99.3412 98.3238C100.155 97.5119 100.8 96.5476 101.24 95.4861C101.68 94.4246 101.907 93.2867 101.907 92.1375C101.907 90.9883 101.68 89.8504 101.24 88.7889C100.8 87.7274 100.155 86.7631 99.3412 85.9512L61.3838 48.0025C59.7429 46.3621 57.5177 45.4406 55.1975 45.4406C52.8773 45.4406 50.6521 46.3621 49.0112 48.0025ZM279.25 138.25H225.577C223.257 138.25 221.031 139.172 219.39 140.813C217.749 142.454 216.828 144.679 216.828 147C216.828 149.321 217.749 151.546 219.39 153.187C221.031 154.828 223.257 155.75 225.577 155.75H279.25C281.571 155.75 283.796 154.828 285.437 153.187C287.078 151.546 288 149.321 288 147C288 144.679 287.078 142.454 285.437 140.813C283.796 139.172 281.571 138.25 279.25 138.25ZM8 147C8 149.321 8.92187 151.546 10.5628 153.187C12.2038 154.828 14.4294 155.75 16.75 155.75H70.4225C72.7431 155.75 74.9687 154.828 76.6097 153.187C78.2506 151.546 79.1725 149.321 79.1725 147C79.1725 144.679 78.2506 142.454 76.6097 140.813C74.9687 139.172 72.7431 138.25 70.4225 138.25H16.75C14.4294 138.25 12.2038 139.172 10.5628 140.813C8.92187 142.454 8 144.679 8 147ZM234.625 48.0025L196.668 85.96C195.855 86.7724 195.211 87.7368 194.771 88.7983C194.331 89.8597 194.105 90.9974 194.105 92.1462C194.105 93.2951 194.331 94.4328 194.771 95.4942C195.211 96.5557 195.855 97.5201 196.668 98.3325C197.48 99.1449 198.444 99.7893 199.506 100.229C200.567 100.669 201.705 100.895 202.854 100.895C204.003 100.895 205.14 100.669 206.202 100.229C207.263 99.7893 208.228 99.1449 209.04 98.3325L246.997 60.375C247.81 59.5626 248.454 58.5982 248.894 57.5367C249.334 56.4753 249.56 55.3376 249.56 54.1888C249.56 53.0399 249.334 51.9022 248.894 50.8408C248.454 49.7793 247.81 48.8149 246.997 48.0025C246.185 47.1901 245.221 46.5457 244.159 46.106C243.098 45.6664 241.96 45.4401 240.811 45.4401C239.662 45.4401 238.525 45.6664 237.463 46.106C236.402 46.5457 235.437 47.1901 234.625 48.0025ZM55.1975 248.552C56.3467 248.554 57.4848 248.328 58.5464 247.888C59.608 247.448 60.5723 246.802 61.3838 245.989L99.3412 208.04C100.154 207.228 100.798 206.263 101.238 205.202C101.677 204.14 101.904 203.003 101.904 201.854C101.904 200.705 101.677 199.567 101.238 198.506C100.798 197.444 100.154 196.48 99.3412 195.667C98.5289 194.855 97.5644 194.211 96.503 193.771C95.4415 193.331 94.3039 193.105 93.155 193.105C92.0061 193.105 90.8685 193.331 89.807 193.771C88.7456 194.211 87.7811 194.855 86.9688 195.667L49.0112 233.616C47.7836 234.838 46.9468 236.398 46.6069 238.096C46.267 239.795 46.4394 241.556 47.1022 243.156C47.7651 244.757 48.8884 246.124 50.3297 247.085C51.771 248.045 53.4653 248.556 55.1975 248.552Z" fill="#FFDD00"/>
</svg>
