<svg width="1383" height="1854" viewBox="0 0 1383 1854" fill="none" xmlns="http://www.w3.org/2000/svg">
<path fill-rule="evenodd" clip-rule="evenodd" d="M723.941 1673.88C724.915 1674.65 726.056 1675.18 727.271 1675.43L760.107 1682.27C761.653 1682.59 763.26 1682.45 764.725 1681.86L770.036 1679.72C772.316 1678.8 774.048 1676.88 774.731 1674.52L776.919 1666.97C777.404 1665.29 777.108 1663.49 776.113 1662.06L767.038 1649C765.632 1646.97 762.458 1648.28 762.888 1650.71C763.049 1651.61 762.654 1652.53 761.885 1653.03L746.174 1663.33C744.399 1664.49 742.235 1664.9 740.158 1664.47L724.302 1661.17C721.134 1660.51 718.104 1662.78 717.843 1666C717.697 1667.8 718.458 1669.55 719.87 1670.66L723.941 1673.88ZM627.188 1671.18C624.878 1672.98 621.631 1672.97 619.33 1671.16C615.689 1668.28 616.257 1662.6 620.396 1660.5L622.091 1659.64C623.493 1658.92 624.639 1657.79 625.37 1656.4L634.402 1639.2C635.149 1637.78 636.306 1636.61 637.724 1635.86L649.28 1629.7C650.343 1629.13 651.52 1628.81 652.724 1628.77L654.434 1628.7C657.813 1628.56 660.911 1630.57 662.174 1633.7L663.297 1636.49C664.108 1638.51 665.702 1640.1 667.713 1640.92L674.076 1643.5C675.344 1644.01 676.784 1643.87 677.928 1643.12C680.62 1641.36 684.211 1643.18 684.379 1646.39L684.717 1652.86C684.949 1657.3 681.459 1661.06 677.008 1661.16L670.292 1661.3L640.764 1662.48C639.089 1662.55 637.477 1663.14 636.156 1664.17L627.188 1671.18ZM295.956 1340.07L501.828 1340.38C503.933 1340.38 505.954 1339.56 507.453 1338.08L518.218 1327.48C519.007 1326.7 519.625 1325.77 520.036 1324.75L524.74 1312.96C525.846 1310.19 528.399 1308.27 531.366 1307.97L545.061 1306.58C547.318 1306.36 549.372 1305.18 550.712 1303.35L555.167 1297.26C556.071 1296.03 557.31 1295.08 558.737 1294.53L574.415 1288.46C576.434 1287.68 578.684 1287.75 580.651 1288.66L587.694 1291.9C589.83 1292.89 591.425 1294.76 592.053 1297.03L601.308 1330.4C601.822 1332.26 602.989 1333.86 604.594 1334.93L607.292 1336.72C610.162 1338.62 613.927 1338.48 616.64 1336.36L618.334 1335.03C622.624 1331.68 628.936 1333.5 630.785 1338.62L632.036 1342.09C632.539 1343.48 632.645 1344.98 632.344 1346.43L631.094 1352.44C630.599 1354.82 629.049 1356.84 626.881 1357.94L596.646 1373.29C593.919 1374.67 592.249 1377.52 592.37 1380.57C592.474 1383.17 591.278 1385.65 589.181 1387.19L583.263 1391.53C581.571 1392.77 580.811 1394.92 581.347 1396.95C582.192 1400.14 579.827 1403.28 576.526 1403.35L576.283 1403.36C572.458 1403.44 569.981 1407.43 571.605 1410.9L572.6 1413.02C574.09 1416.2 572.879 1419.99 569.821 1421.71C566.993 1423.31 565.713 1426.7 566.781 1429.77L567.309 1431.28C568.442 1434.54 571.529 1436.7 574.972 1436.65L576.425 1436.63C578.324 1436.61 580.081 1435.62 581.096 1434.02C582.922 1431.13 586.879 1430.53 589.481 1432.74L593.626 1436.26C594.646 1437.13 595.867 1437.73 597.178 1438L611.465 1440.97C613.595 1441.42 615.453 1442.71 616.61 1444.55L634.623 1473.24C635.609 1474.82 636.019 1476.68 635.781 1478.52L633.329 1497.52C632.815 1501.5 635.326 1505.24 639.201 1506.27L648.153 1508.66C650.475 1509.28 652.396 1510.91 653.384 1513.1L657.487 1522.2C657.857 1523.02 658.086 1523.9 658.164 1524.8L659.81 1543.83C659.965 1545.62 660.72 1547.31 661.954 1548.62L667.633 1554.66C668.757 1555.86 670.223 1556.68 671.83 1557.01L690.069 1560.81L707.699 1563.52C709.813 1563.84 711.969 1563.31 713.686 1562.03L721.117 1556.51C721.547 1556.19 722.008 1555.92 722.493 1555.69L740.54 1547.23C741.454 1546.8 742.44 1546.55 743.447 1546.49L744.755 1546.41C749.736 1546.1 753.09 1541.18 751.548 1536.43L747.763 1524.78C747.189 1523.01 744.792 1522.75 743.856 1524.36C742.855 1526.08 740.257 1525.64 739.882 1523.68L733.632 1491.12C733.118 1488.44 731.041 1486.33 728.367 1485.77L727.599 1485.61C725.449 1485.16 723.237 1486.02 721.956 1487.81C719.803 1490.8 715.385 1490.91 713.092 1488.02L711.973 1486.61C709.301 1483.24 710.314 1478.28 714.092 1476.23L720.028 1473.01C722.225 1471.82 724.854 1471.72 727.133 1472.75L740.281 1478.68C741.556 1479.26 742.657 1480.15 743.476 1481.29L761.624 1506.41C762.223 1507.24 762.657 1508.17 762.903 1509.16L770.575 1540.04L775.89 1576.8C776.07 1578.04 775.81 1579.31 775.155 1580.38L768.822 1590.76C766.897 1593.91 762.038 1591.99 762.791 1588.37C762.928 1587.71 762.859 1587.02 762.593 1586.4L760.706 1582.01C758.999 1578.03 754.44 1576.13 750.416 1577.72L717.887 1590.57C715.609 1591.47 713.043 1591.28 710.925 1590.05L708.407 1588.58C706.344 1587.38 703.854 1587.17 701.615 1587.99L689.205 1592.57C686.838 1593.44 685.022 1595.38 684.304 1597.8L682.858 1602.68C682.093 1605.26 680.083 1607.28 677.508 1608.06L656.131 1614.53C655.337 1614.77 654.586 1615.14 653.903 1615.61L628.373 1633.25L603.877 1648.42C602.843 1649.06 601.601 1649.28 600.41 1649.03C596.268 1648.17 595.236 1642.73 598.774 1640.41L630.829 1619.4C632.014 1618.63 632.971 1617.55 633.603 1616.28L640.557 1602.33C641.711 1600.02 641.674 1597.29 640.457 1595L639.205 1592.65C638.616 1591.55 638.294 1590.32 638.267 1589.06L638.076 1580.22C638.023 1577.76 636.425 1575.61 634.091 1574.85C630.982 1573.83 627.651 1575.59 626.741 1578.74L625.077 1584.48C624.615 1586.07 623.668 1587.49 622.367 1588.52L613.681 1595.41C611.822 1596.89 609.402 1597.46 607.078 1596.98L603.65 1596.27C600.118 1595.53 596.531 1597.25 594.893 1600.46L593.003 1604.17C592.286 1605.58 592.001 1607.17 592.185 1608.73L592.938 1615.16C593.304 1618.3 591.795 1621.35 589.083 1622.97L581.381 1627.55C579.23 1628.83 576.605 1629.03 574.286 1628.09L569.336 1626.08C567.646 1625.4 565.708 1626 564.701 1627.52C562.844 1630.32 558.543 1629.55 557.773 1626.28L551.753 1600.73C551.488 1599.61 550.982 1598.55 550.27 1597.64L540.268 1584.85C539.876 1584.34 539.425 1583.89 538.925 1583.49L517.095 1566.24C515.309 1564.83 514.209 1562.73 514.07 1560.45L513.011 1543.12C512.851 1540.5 510.957 1538.32 508.387 1537.78C505.811 1537.24 503.915 1535.05 503.763 1532.42L502.767 1515.22C502.506 1510.7 498.545 1507.3 494.035 1507.72L428.728 1513.83C427.717 1513.93 426.816 1513.2 426.698 1512.19C426.586 1511.23 425.767 1510.52 424.806 1510.54L260.49 1513.69C258.095 1513.73 256.051 1515.43 255.563 1517.77C255.113 1519.94 253.329 1521.57 251.135 1521.83L249.321 1522.04C246.348 1522.39 243.496 1520.76 242.289 1518.02C241.18 1515.5 238.668 1513.9 235.918 1513.95L125.961 1516.1C122.706 1516.16 119.737 1514.25 118.453 1511.26L116.269 1506.17C115.586 1504.58 115.437 1502.81 115.847 1501.12L153.215 1347.42C154.081 1343.86 157.253 1341.35 160.915 1341.31L295.956 1340.07Z" stroke="black" stroke-width="2.2"/>
</svg>
