<svg width="1383" height="1854" viewBox="0 0 1383 1854" fill="none" xmlns="http://www.w3.org/2000/svg">
<path fill-rule="evenodd" clip-rule="evenodd" d="M557.169 1122.03C557.216 1122.46 557.227 1122.9 557.202 1123.34L554.913 1163.96C554.782 1166.29 555.678 1168.57 557.367 1170.18L583.056 1194.78C584.345 1196.02 585.185 1197.65 585.44 1199.42L588.373 1219.7C588.633 1221.5 589.499 1223.16 590.826 1224.4L608.341 1240.78C609.835 1242.18 611.807 1242.95 613.853 1242.94L622.036 1242.89C624.868 1242.87 627.48 1241.36 628.904 1238.91L643.084 1214.54C643.883 1213.17 644.255 1211.59 644.153 1210L642.568 1185.26C642.333 1181.59 644.628 1178.23 648.132 1177.12L658.049 1173.98C660.327 1173.25 662.163 1171.55 663.053 1169.33L672.51 1145.78C673.12 1144.27 673.249 1142.6 672.88 1141L671.503 1135.04C670.57 1131.01 672.869 1126.93 676.802 1125.64L700.438 1117.88C705.37 1116.26 707.478 1110.45 704.729 1106.04L694.032 1088.91C692.405 1086.3 692.415 1082.99 694.057 1080.39L706.177 1061.23C706.474 1060.76 706.818 1060.33 707.205 1059.93L713.328 1053.64C718.04 1048.8 726.236 1052.37 725.898 1059.12C725.578 1065.48 732.974 1069.19 737.886 1065.13L741.284 1062.32C744.524 1059.64 749.284 1059.93 752.18 1062.98L755.419 1066.38C757.68 1068.76 761.163 1069.52 764.206 1068.29L770.086 1065.92C772.567 1064.93 774.384 1062.75 774.929 1060.13L776.816 1051.07C777.479 1047.88 780.008 1045.42 783.21 1044.83L811.01 1039.75C813.92 1039.22 816.298 1037.13 817.196 1034.31L823.565 1014.3C824.735 1010.63 828.361 1008.31 832.188 1008.79L849.642 1010.99C851.955 1011.28 854.28 1010.55 856.008 1008.99L889.169 979C890.426 977.863 891.29 976.356 891.635 974.696L891.733 974.229C892.325 971.385 891.328 968.443 889.129 966.544L887.457 965.101C885.324 963.259 884.317 960.43 884.807 957.654L890.216 927.042C890.344 926.319 890.662 925.642 891.138 925.083L891.459 924.705C893.959 921.764 898.762 923.753 898.45 927.601C898.229 930.335 900.777 932.466 903.428 931.765L906.191 931.035C908.518 930.419 910.252 928.473 910.594 926.09L914.11 901.625C914.614 898.123 911.663 895.093 908.148 895.505L907.495 895.582C905.75 895.786 904.294 897.011 903.795 898.695C902.686 902.434 897.618 902.981 895.736 899.565L893.253 895.057C891.859 892.525 892.291 889.377 894.317 887.315L900.496 881.026C902.554 878.931 905.661 878.262 908.399 879.325C909.58 879.783 910.858 879.929 912.111 879.747L913.684 879.52C918.599 878.81 922.967 882.702 922.825 887.665L922.416 902.033C922.293 906.363 925.638 910.004 929.963 910.248L943.113 910.989C944.143 911.047 945.152 911.303 946.085 911.745L966.988 921.637C970.913 923.495 975.543 921.191 976.427 916.939L976.468 916.746C976.784 915.227 976.519 913.644 975.726 912.311L972.963 907.669C971.076 904.496 974.047 900.652 977.593 901.679C979.803 902.319 982.103 901.001 982.669 898.771L985.425 887.918C986.27 884.59 990.823 884.157 992.28 887.266C992.533 887.806 992.65 888.4 992.621 888.996L991.788 906.127C991.684 908.27 992.445 910.365 993.9 911.941L1005.69 924.718C1008.24 927.472 1012.77 926.687 1014.24 923.238C1015.04 921.357 1016.88 920.125 1018.92 920.097L1020.06 920.082C1023.1 920.041 1025.41 917.318 1024.94 914.311C1024.6 912.114 1025.75 909.957 1027.76 909.013L1030.54 907.712C1032.98 906.569 1034.68 904.274 1035.06 901.607L1036.04 894.778C1036.59 890.971 1034.35 887.314 1030.71 886.07L1021.3 882.851C1020.45 882.559 1019.53 882.468 1018.64 882.587C1012.68 883.375 1009.54 875.737 1014.34 872.112L1015.5 871.237L1022.62 865.863C1024.12 864.728 1025.98 864.16 1027.86 864.259L1032.67 864.511C1036.63 864.72 1039.84 867.803 1040.21 871.755L1040.78 877.843C1040.91 879.224 1041.4 880.547 1042.19 881.684L1047.52 889.301C1051.14 894.474 1059.05 893.612 1061.47 887.781L1063.52 882.84C1064.45 880.581 1066.37 878.875 1068.73 878.209L1084.07 873.869C1088.7 872.559 1091.13 867.486 1089.26 863.053L1087 857.733C1086.31 856.086 1086.18 854.254 1086.65 852.528L1087.83 848.144C1089.3 842.722 1095.79 840.49 1100.32 843.807C1101.25 844.481 1102.31 844.955 1103.43 845.188L1106.55 845.838C1108.37 846.216 1110.26 845.951 1111.9 845.088L1128.44 836.399C1130.13 835.509 1131.45 834.042 1132.15 832.264L1137.8 818.029C1139.38 814.028 1143.85 811.999 1147.91 813.437L1156.52 816.489C1160.62 817.944 1165.13 815.813 1166.61 811.717L1168.32 806.733C1169.35 803.725 1173.73 804.146 1174.16 807.295C1174.43 809.24 1176.46 810.414 1178.28 809.681L1191.53 804.346C1192.7 803.874 1193.74 803.132 1194.57 802.179L1226.18 765.884C1227.16 764.757 1227.8 763.378 1228.04 761.903L1231.21 742.249C1231.45 740.751 1231.26 739.215 1230.66 737.821L1221.08 715.507C1220.93 715.158 1220.76 714.82 1220.56 714.496L1197.22 676.261C1196.07 674.373 1194.19 673.047 1192.02 672.596L1180.2 670.135C1176.9 669.449 1173.53 670.898 1171.76 673.759L1167.73 680.27C1164.62 685.298 1157.32 685.332 1154.17 680.334L1138.9 656.157C1137.25 653.546 1137.25 650.219 1138.9 647.609L1140.51 645.069C1141.02 644.259 1141.38 643.362 1141.58 642.423L1144.4 628.846C1144.59 627.952 1144.62 627.033 1144.5 626.128L1138.04 579.071C1137.67 576.417 1136 574.121 1133.59 572.956L1132.08 572.226C1130.22 571.329 1128.09 571.183 1126.13 571.82L1122.67 572.943C1121.35 573.373 1119.93 573.45 1118.57 573.167L1075.54 564.212C1071.47 563.365 1068.73 559.536 1069.23 555.406L1073.13 523.669C1073.2 523.089 1073.2 522.503 1073.15 521.922L1044.25 224.421C1044.04 222.27 1042.97 220.295 1041.28 218.946L974.133 165.277C973.224 164.55 972.168 164.031 971.038 163.755L944.716 157.323C942.582 156.802 940.328 157.181 938.482 158.371L857.657 210.486C855.049 212.168 851.703 212.19 849.073 210.541L829.775 198.445C827.551 197.051 826.152 194.655 826.032 192.033L824.455 157.647C824.288 153.998 821.67 150.926 818.094 150.182L800.281 146.475C796.962 145.784 793.569 147.26 791.811 150.158L676.27 340.625C675.641 341.661 675.256 342.826 675.144 344.033L669.164 408.321C668.982 410.278 668.086 412.099 666.648 413.438L646.498 432.183C645.458 433.151 644.695 434.378 644.286 435.738L630.614 481.236C630.287 482.325 630.195 483.471 630.346 484.597L635.398 522.448C635.708 524.767 637.162 526.775 639.268 527.792C642.143 529.182 643.703 532.349 643.052 535.475L640.812 546.243C640.626 547.137 640.288 547.993 639.813 548.773L613.9 591.344C613.234 592.439 612.315 593.357 611.219 594.022L594.348 604.268C593.694 604.665 593.101 605.153 592.587 605.718L575.53 624.44C574.659 625.396 574.033 626.548 573.705 627.799L555.034 699.011C553.631 704.364 547.347 706.71 542.779 703.585L530.509 695.191C529.054 694.196 527.31 693.709 525.549 693.807L519.425 694.146C514.85 694.4 511.422 698.438 511.914 702.993L557.169 1122.03ZM993.583 933.087C991.523 932.364 989.258 932.513 987.312 933.501L979.62 937.404C978.372 938.037 977.48 939.203 977.195 940.573L976.446 944.171C975.839 947.086 979.17 949.196 981.547 947.402C982.976 946.322 985.011 946.614 986.079 948.052L989.422 952.551C990.897 954.536 993.736 954.88 995.642 953.303L996.372 952.7C997.146 952.06 998.209 951.896 999.14 952.273C1001.77 953.339 1004.08 950.186 1002.27 948L1001.62 947.212C1000.72 946.125 1000.7 944.558 1001.58 943.452L1002.34 942.49C1004.26 940.063 1003.21 936.47 1000.3 935.445L993.583 933.087ZM969.003 963.399C967.425 959.817 962.944 958.606 959.777 960.905L956.36 963.384C954.291 964.886 953.919 967.823 955.548 969.794C956.505 970.951 956.811 972.515 956.36 973.947L955.654 976.19C954.621 979.473 956.649 982.93 960.018 983.632C963.164 984.286 966.244 982.267 966.899 979.122L969.395 967.126C969.656 965.873 969.519 964.57 969.003 963.399ZM941.999 928.83C939.027 930.778 937.874 934.572 939.258 937.844L942.928 946.516C943.452 947.754 944.28 948.84 945.335 949.674L946.03 950.223C949.926 953.303 955.657 952.125 958.024 947.758L958.47 946.935C958.841 946.25 959.11 945.515 959.269 944.753L962.138 930.963C962.738 928.081 961.707 925.104 959.455 923.21L957.812 921.828C954.01 918.632 948.246 919.636 945.748 923.929L944.323 926.378C943.749 927.365 942.953 928.204 941.999 928.83ZM916.751 985.378C915.364 984.752 914.185 983.744 913.351 982.471L903.551 967.521C901.46 964.332 901.912 960.11 904.629 957.435L918.885 943.399C921.199 941.12 924.779 940.736 927.524 942.472C929.602 943.787 930.837 946.097 930.775 948.556L930.636 954.041C930.587 955.971 931.238 957.854 932.468 959.341L937.194 965.058C938.743 966.931 939.356 969.406 938.861 971.785L937.825 976.766C937.392 978.843 936.153 980.663 934.378 981.826L927.656 986.233C925.368 987.732 922.473 987.959 919.98 986.834L916.751 985.378Z" stroke="black" stroke-width="2.2"/>
</svg>
