<svg width="1383" height="1854" viewBox="0 0 1383 1854" fill="none" xmlns="http://www.w3.org/2000/svg">
<path fill-rule="evenodd" clip-rule="evenodd" d="M503.334 708.952C502.35 710.791 500.333 711.83 498.265 711.563L491.185 710.649C488.737 710.333 486.572 708.904 485.318 706.777L482.566 702.109C480.484 698.576 476.068 697.19 472.34 698.899L458.327 705.323C456.225 706.287 454.643 708.113 453.988 710.331L436.388 769.972C435.96 771.42 435.952 772.96 436.363 774.414L442.693 796.789C443.27 798.831 443.013 801.018 441.978 802.87L425.671 832.046C424.414 834.295 424.317 837.012 425.41 839.345L438.618 867.522C439.623 869.668 439.626 872.15 438.625 874.298L432.514 887.404C432.167 888.15 431.936 888.944 431.831 889.76L430.425 900.646C430.233 902.135 429.626 903.539 428.673 904.699L415.557 920.667C414.166 922.359 412.143 923.407 409.959 923.567L400.874 924.233C398.55 924.403 396.416 925.578 395.03 927.45L389.448 934.984C388.336 936.486 386.732 937.551 384.916 937.994L365.363 942.763C363.558 943.203 361.962 944.258 360.85 945.746L353.642 955.392C352.302 957.185 351.774 959.457 352.187 961.656L358.639 996.055C358.931 997.608 358.756 999.211 358.137 1000.66L348.799 1022.59C348.253 1023.88 348.052 1025.28 348.214 1026.66L349.617 1038.64C349.87 1040.81 349.23 1042.98 347.843 1044.66L336.64 1058.25C335.455 1059.68 334.808 1061.49 334.812 1063.35L334.848 1078.67C334.853 1080.85 333.966 1082.94 332.392 1084.45L318.453 1097.85C317.112 1099.14 316.262 1100.86 316.049 1102.7L313.88 1121.57C313.677 1123.32 312.899 1124.96 311.665 1126.23L305.548 1132.52C304.192 1133.91 303.39 1135.75 303.291 1137.69L300.924 1184.17C300.886 1184.93 300.954 1185.68 301.127 1186.42L304.499 1200.72C304.886 1202.36 304.744 1204.08 304.096 1205.64L294.791 1227.94C294.114 1229.57 293.991 1231.37 294.44 1233.07L298.904 1249.95C299.277 1251.36 299.257 1252.85 298.847 1254.25L291.949 1277.79C291.733 1278.53 291.413 1279.23 290.997 1279.87L283.871 1290.93C283.443 1291.6 283.116 1292.32 282.9 1293.08L279.821 1303.93C279.268 1305.88 279.475 1307.97 280.4 1309.77L293.724 1335.73C295.091 1338.39 297.833 1340.07 300.829 1340.07L501.823 1340.38C503.928 1340.38 505.949 1339.56 507.448 1338.08L518.213 1327.48C519.002 1326.7 519.62 1325.77 520.031 1324.75L524.735 1312.96C525.841 1310.19 528.394 1308.27 531.361 1307.97L545.056 1306.58C547.313 1306.36 549.367 1305.18 550.707 1303.35L555.162 1297.26C556.066 1296.03 557.305 1295.08 558.732 1294.53L574.41 1288.46C576.429 1287.68 578.679 1287.75 580.646 1288.66L583.33 1289.89C587.518 1291.82 592.468 1289.82 594.137 1285.52L608.706 1248C609.888 1244.95 609.099 1241.49 606.712 1239.26L590.822 1224.4C589.495 1223.16 588.629 1221.5 588.369 1219.7L585.436 1199.42C585.181 1197.65 584.341 1196.02 583.052 1194.78L557.363 1170.18C555.674 1168.57 554.778 1166.29 554.909 1163.96L557.198 1123.33C557.223 1122.9 557.212 1122.46 557.165 1122.03L512.751 710.781C512.221 705.871 505.663 704.598 503.334 708.952Z" stroke="black" stroke-width="2.2"/>
</svg>
