<svg width="1383" height="1854" viewBox="0 0 1383 1854" fill="none" xmlns="http://www.w3.org/2000/svg">
<path fill-rule="evenodd" clip-rule="evenodd" d="M551.754 1600.73C551.488 1599.61 550.982 1598.55 550.27 1597.64L540.268 1584.84C539.876 1584.34 539.425 1583.89 538.925 1583.49L517.095 1566.24C515.309 1564.83 514.209 1562.73 514.071 1560.45L513.011 1543.12C512.851 1540.5 510.957 1538.31 508.387 1537.78C505.811 1537.24 503.915 1535.05 503.763 1532.42L502.767 1515.22C502.506 1510.7 498.545 1507.3 494.035 1507.72L434.532 1513.29C430.27 1513.69 427.077 1517.37 427.288 1521.65L433.766 1652.83C433.846 1654.45 433.432 1656.05 432.579 1657.43L428.261 1664.41C427.46 1665.71 427.045 1667.21 427.066 1668.73L427.157 1675.45C427.232 1681.02 432.824 1684.81 438.02 1682.81L492.592 1661.89C495.045 1660.95 496.88 1658.86 497.501 1656.31L503.583 1631.29C504.107 1629.14 503.714 1626.87 502.501 1625.01L500.596 1622.11C498.795 1619.36 499.184 1615.72 501.524 1613.42C502.623 1612.34 503.327 1610.92 503.524 1609.39L504.767 1599.77C504.965 1598.23 504.506 1596.68 503.504 1595.51L502.39 1594.19C500.025 1591.41 501.715 1587.12 505.342 1586.69C508.195 1586.36 510.037 1583.51 509.168 1580.77L508.973 1580.16C507.525 1575.59 512.599 1571.72 516.617 1574.33L519.776 1576.39C521.597 1577.57 522.7 1579.59 522.713 1581.76L522.783 1593.58C522.786 1594 522.855 1594.42 522.988 1594.82L524.984 1600.78C525.727 1603 523.05 1604.78 521.296 1603.22C519.5 1601.64 516.78 1603.53 517.645 1605.76L521.664 1616.15C522.123 1617.34 522.069 1618.66 521.515 1619.81L518.791 1625.45C517.938 1627.21 515.363 1627.01 514.794 1625.14C514.148 1623 511.083 1623.14 510.629 1625.32L508.26 1636.7C507.786 1638.98 510.555 1640.49 512.213 1638.86C513.534 1637.56 515.77 1638.23 516.162 1640.04L516.501 1641.6C517.001 1643.92 519.739 1644.93 521.622 1643.49L533.639 1634.33C534.604 1633.59 535.233 1632.5 535.385 1631.3C536.019 1626.26 543.189 1625.92 544.291 1630.88L545.283 1635.33C546.066 1638.85 550.042 1640.59 553.153 1638.77L555.262 1637.55C557.961 1635.97 559.315 1632.82 558.599 1629.78L551.754 1600.73ZM473.264 1714.74C472.807 1718.47 475.282 1721.92 478.956 1722.68C481.053 1723.12 483.25 1722.59 484.928 1721.26C487.391 1719.3 488.356 1715.97 487.287 1713.02L486.043 1709.57C484.646 1705.7 480 1704.15 476.559 1706.41C474.992 1707.43 473.956 1709.1 473.728 1710.96L473.264 1714.74Z" stroke="black" stroke-width="2.2"/>
</svg>
