<svg width="1383" height="1854" viewBox="0 0 1383 1854" fill="none" xmlns="http://www.w3.org/2000/svg">
<path fill-rule="evenodd" clip-rule="evenodd" d="M442.695 796.79C443.273 798.831 443.016 801.019 441.98 802.871L425.673 832.047C424.416 834.296 424.319 837.012 425.412 839.345L438.62 867.523C439.626 869.669 439.628 872.15 438.627 874.298L432.517 887.405C432.169 888.15 431.939 888.945 431.833 889.76L430.427 900.646C430.235 902.135 429.628 903.54 428.675 904.7L415.559 920.667C414.169 922.36 412.146 923.408 409.961 923.568L400.876 924.233C398.552 924.404 396.418 925.578 395.032 927.45L389.451 934.984C388.338 936.487 386.734 937.552 384.918 937.995L365.365 942.764C363.56 943.204 361.964 944.259 360.852 945.747L353.644 955.393C352.304 957.185 351.777 959.457 352.189 961.657L358.642 996.056C358.933 997.608 358.758 999.212 358.139 1000.67L348.801 1022.59C348.256 1023.88 348.054 1025.28 348.216 1026.66L349.619 1038.64C349.873 1040.81 349.232 1042.98 347.845 1044.66L336.643 1058.25C335.457 1059.68 334.81 1061.49 334.814 1063.36L334.85 1078.67C334.855 1080.85 333.968 1082.94 332.394 1084.45L318.455 1097.85C317.114 1099.14 316.264 1100.86 316.052 1102.7L313.882 1121.57C313.68 1123.32 312.901 1124.96 311.667 1126.23L305.55 1132.52C304.194 1133.91 303.392 1135.75 303.293 1137.69L300.926 1184.17C300.888 1184.93 300.956 1185.68 301.129 1186.42L304.501 1200.72C304.888 1202.36 304.747 1204.08 304.098 1205.64L294.793 1227.95C294.116 1229.57 293.993 1231.37 294.443 1233.07L298.906 1249.95C299.279 1251.36 299.259 1252.85 298.849 1254.25L291.951 1277.79C291.735 1278.53 291.415 1279.23 290.999 1279.87L283.874 1290.93C283.446 1291.6 283.118 1292.32 282.903 1293.08L279.823 1303.93C279.271 1305.88 279.477 1307.97 280.403 1309.77L290.033 1328.53C292.751 1333.83 288.941 1340.13 282.99 1340.19L158.809 1341.33C156.221 1341.35 153.781 1340.12 152.261 1338.03L147.774 1331.85C146.043 1329.46 145.764 1326.32 147.045 1323.67L154.147 1308.97C154.675 1307.88 154.947 1306.68 154.944 1305.47L154.469 1148.64C154.463 1146.77 153.802 1144.96 152.601 1143.53L141.894 1130.75C139.405 1127.77 134.85 1127.73 132.3 1130.65C128.829 1134.63 122.3 1132.84 121.339 1127.65L119.519 1117.82C119.122 1115.68 119.617 1113.46 120.89 1111.69L129.58 1099.61C130.927 1097.74 131.399 1095.37 130.878 1093.13L113.583 1018.65C113.272 1017.31 113.311 1015.92 113.696 1014.6L124.656 977.041C124.882 976.268 125.224 975.532 125.669 974.86L130.08 968.211C131.08 966.703 131.54 964.901 131.384 963.099L129.787 944.638C129.678 943.38 129.869 942.114 130.343 940.944L137.439 923.434C138.401 921.059 138.168 918.367 136.811 916.194L121.539 891.727C120.674 890.34 120.254 888.722 120.336 887.089L121.934 855.271C121.99 854.16 122.277 853.073 122.776 852.08L127.161 843.358C128.722 840.252 128.099 836.494 125.619 834.058L120.926 829.447C118.351 826.917 117.789 822.976 119.554 819.827L125.882 808.544C126.866 806.789 127.152 804.728 126.685 802.771L124.806 794.914C123.636 790.02 127.22 785.274 132.248 785.061L429.42 772.457C433.122 772.3 436.448 774.707 437.457 778.272L442.695 796.79Z" stroke="black" stroke-width="2.2"/>
</svg>
